<?xml version="1.0" standalone="no"?>
<!DOCTYPE svg PUBLIC "-//W3C//DTD SVG 20010904//EN"
 "http://www.w3.org/TR/2001/REC-SVG-20010904/DTD/svg10.dtd">
<svg version="1.0" xmlns="http://www.w3.org/2000/svg"
 width="2028.000000pt" height="812.000000pt" viewBox="0 0 2028.000000 812.000000"
 preserveAspectRatio="xMidYMid meet">

<g transform="translate(0.000000,812.000000) scale(0.100000,-0.100000)"
fill="#000000" stroke="none">
<path d="M1215 6029 l-35 -31 0 -2130 c0 -2299 -3 -2170 49 -2198 13 -7 770
-10 2348 -10 l2329 0 30 31 29 30 3 2126 2 2126 -22 33 c-13 18 -33 38 -46 43
-16 8 -735 11 -2337 11 l-2314 0 -36 -31z m1253 -1133 c15 -8 246 -234 515
-503 l487 -488 0 -45 0 -45 -503 -502 c-533 -533 -520 -523 -580 -492 -61 31
-72 86 -28 145 16 21 220 230 455 463 234 233 426 426 426 430 0 3 -198 204
-441 446 -242 242 -447 453 -456 469 -20 38 -10 89 24 116 30 24 63 26 101 6z
m2304 -1916 c14 -10 31 -33 38 -51 12 -27 11 -36 -4 -64 -10 -18 -29 -38 -42
-44 -17 -8 -179 -11 -529 -11 l-503 0 -31 31 c-42 42 -41 81 3 125 l34 34 505
0 c486 0 505 -1 529 -20z"/>
<path d="M18140 5325 c-363 -63 -569 -321 -570 -717 l0 -77 -147 -3 -148 -3
-2 -30 c-1 -16 1 -138 4 -270 l6 -240 143 3 144 3 2 -813 3 -813 325 0 c282 0
325 2 326 15 1 8 2 374 3 813 l1 797 219 0 c190 0 220 2 225 16 3 9 6 123 6
254 0 131 -3 245 -6 254 -5 14 -35 16 -224 16 -139 0 -221 4 -225 10 -4 6 -1
43 5 83 13 83 44 137 95 161 52 25 169 21 261 -9 42 -14 80 -25 84 -25 13 0
221 432 216 447 -11 28 -172 90 -321 123 -106 23 -306 26 -425 5z"/>
<path d="M16325 5291 c-3 -6 -2 -129 1 -275 l7 -266 324 0 323 0 0 275 0 275
-324 0 c-192 0 -327 -4 -331 -9z"/>
<path d="M7833 4549 c-75 -9 -249 -67 -335 -110 -191 -96 -351 -258 -452 -457
-71 -140 -117 -350 -117 -530 0 -537 292 -951 766 -1087 222 -64 465 -51 640
35 79 38 176 117 197 160 l18 35 0 -117 0 -118 325 0 325 0 0 1085 0 1085
-325 0 -325 -1 0 -101 0 -101 -45 42 c-165 152 -402 216 -672 180z m396 -586
c117 -33 233 -128 288 -236 76 -152 70 -435 -14 -589 -99 -181 -335 -278 -546
-223 -187 49 -325 183 -372 365 -23 85 -23 244 -2 327 73 281 356 437 646 356z"/>
<path d="M10855 4550 c-245 -27 -451 -161 -545 -355 l-29 -60 -1 198 0 197
-322 -2 -323 -3 0 -1080 0 -1080 323 -3 322 -2 0 598 c0 662 -1 651 66 784 88
175 271 268 469 238 95 -15 149 -43 223 -116 62 -62 98 -125 124 -217 8 -29
13 -235 17 -662 l6 -620 322 -3 322 -2 3 617 3 618 43 85 c100 200 249 303
436 302 103 0 182 -23 246 -71 70 -53 105 -103 137 -196 l28 -80 5 -635 5
-635 323 -3 323 -2 -4 697 c-3 681 -4 700 -26 798 -68 302 -223 513 -457 621
-93 43 -164 61 -286 72 -350 32 -670 -116 -855 -394 -19 -29 -39 -51 -44 -48
-5 3 -25 30 -45 60 -80 120 -238 251 -378 314 -132 59 -294 85 -431 70z"/>
<path d="M13767 4523 c-11 -10 -8 -1317 3 -1418 19 -182 94 -373 193 -495 100
-122 215 -199 372 -245 77 -23 110 -27 225 -28 123 -1 142 1 220 27 203 68
338 169 436 328 l29 46 0 -186 0 -187 328 -3 327 -2 0 1085 0 1085 -324 0
c-286 0 -325 -2 -330 -16 -3 -9 -6 -285 -6 -613 l0 -598 -42 -77 c-81 -150
-180 -245 -309 -297 -42 -17 -76 -22 -154 -23 -118 -1 -168 18 -234 89 -83 90
-90 167 -91 938 l0 597 -318 0 c-175 0 -322 -3 -325 -7z"/>
<path d="M16327 4403 c-3 -71 -5 -558 -4 -1083 l2 -955 328 -3 327 -2 0 1085
0 1085 -324 0 -323 0 -6 -127z"/>
</g>
</svg>
