<?xml version="1.0" encoding="UTF-8"?>
<svg version="1.1" xmlns="http://www.w3.org/2000/svg" width="894" height="628">
<path d="M0 0 C295.02 0 590.04 0 894 0 C894 207.24 894 414.48 894 628 C598.98 628 303.96 628 0 628 C0 420.76 0 213.52 0 0 Z " fill="#FEEF84" transform="translate(0,0)"/>
<path d="M0 0 C295.02 0 590.04 0 894 0 C894 207.24 894 414.48 894 628 C598.98 628 303.96 628 0 628 C0 420.76 0 213.52 0 0 Z M104 44 C104 204.05 104 364.1 104 529 C118.85 529 133.7 529 149 529 C149 543.52 149 558.04 149 573 C376.7 573 604.4 573 839 573 C839 412.95 839 252.9 839 88 C824.48 88 809.96 88 795 88 C795 73.48 795 58.96 795 44 C566.97 44 338.94 44 104 44 Z " fill="#F6F6F6" transform="translate(0,0)"/>
<path d="M0 0 C228.03 0 456.06 0 691 0 C691 14.52 691 29.04 691 44 C705.52 44 720.04 44 735 44 C735 204.05 735 364.1 735 529 C507.3 529 279.6 529 45 529 C45 514.48 45 499.96 45 485 C30.15 485 15.3 485 0 485 C0 324.95 0 164.9 0 0 Z M45 44 C45 174.68 45 305.36 45 440 C243.33 440 441.66 440 646 440 C646 309.32 646 178.64 646 44 C447.67 44 249.34 44 45 44 Z " fill="#0B0B0B" transform="translate(104,44)"/>
<path d="M0 0 C9.57 0 19.14 0 29 0 C29 51.15 29 102.3 29 155 C19.76 155 10.52 155 1 155 C0 154 0 154 -0.12025452 151.45005798 C-0.11803391 150.31532547 -0.11581329 149.18059296 -0.11352539 148.01147461 C-0.11341209 146.08959572 -0.11341209 146.08959572 -0.11329651 144.12889099 C-0.10818909 142.72004152 -0.10297309 141.31119244 -0.09765625 139.90234375 C-0.09579202 138.46887766 -0.09436814 137.03541093 -0.09336853 135.60194397 C-0.08954372 131.82240043 -0.07971377 128.0428951 -0.06866455 124.2633667 C-0.05844963 120.40930702 -0.05387074 116.55524118 -0.04882812 112.70117188 C-0.03809146 105.13409713 -0.02101549 97.56705391 0 90 C-7.79653825 90.06680715 -15.59256738 90.15653635 -23.38867188 90.26245117 C-26.04258171 90.29577133 -28.69656363 90.32378085 -31.35058594 90.34643555 C-35.15851659 90.37985092 -38.96578238 90.43216085 -42.7734375 90.48828125 C-44.56254044 90.49786613 -44.56254044 90.49786613 -46.38778687 90.50764465 C-48.03927231 90.53733589 -48.03927231 90.53733589 -49.72412109 90.56762695 C-50.69674896 90.57873001 -51.66937683 90.58983307 -52.67147827 90.60127258 C-53.43989044 90.73285263 -54.20830261 90.86443268 -55 91 C-57.30875214 94.46312821 -57.26826029 95.85103974 -57.31884766 99.94018555 C-57.33871735 101.16122482 -57.35858704 102.3822641 -57.37905884 103.64030457 C-57.39638565 105.61852959 -57.39638565 105.61852959 -57.4140625 107.63671875 C-57.43277347 109.00007806 -57.45234683 110.36342579 -57.4727478 111.72676086 C-57.52408284 115.31219655 -57.56370099 118.89766978 -57.60089111 122.48327637 C-57.6409223 126.143242 -57.69191176 129.80305374 -57.7421875 133.46289062 C-57.83999929 140.64186883 -57.91950058 147.82072305 -58 155 C-67.57 155 -77.14 155 -87 155 C-87 104.18 -87 53.36 -87 1 C-61 1 -61 1 -58 2 C-57.67 21.14 -57.34 40.28 -57 60 C-53.23142137 61.88428931 -52.05677485 62.24954118 -48.09545898 62.24291992 C-46.63891151 62.24753487 -46.63891151 62.24753487 -45.15293884 62.25224304 C-43.59030052 62.24146477 -43.59030052 62.24146477 -41.99609375 62.23046875 C-40.92126236 62.23001053 -39.84643097 62.22955231 -38.73902893 62.2290802 C-36.46866755 62.22606112 -34.19830818 62.21818511 -31.92797852 62.20581055 C-28.447354 62.18755169 -24.96699555 62.18530094 -21.48632812 62.18554688 C-19.28124769 62.18063159 -17.07616907 62.17480323 -14.87109375 62.16796875 C-13.30541908 62.16629951 -13.30541908 62.16629951 -11.70811462 62.16459656 C-10.74023514 62.15821671 -9.77235565 62.15183685 -8.77514648 62.14526367 C-7.9233934 62.14145187 -7.07164032 62.13764008 -6.19407654 62.13371277 C-3.82148731 62.08379243 -3.82148731 62.08379243 -1 61 C-0.67 40.87 -0.34 20.74 0 0 Z " fill="#080808" transform="translate(551,203)"/>
<path d="M0 0 C9.24 0 18.48 0 28 0 C28 50.82 28 101.64 28 154 C19.09 154 10.18 154 1 154 C0 153 0 153 -0.12304783 150.48749447 C-0.12212604 149.36014165 -0.12120424 148.23278883 -0.12025452 147.0712738 C-0.12162918 145.78253357 -0.12300385 144.49379333 -0.12442017 143.16600037 C-0.12088055 141.72451759 -0.11724573 140.28303505 -0.11352539 138.84155273 C-0.11324353 137.33403526 -0.11340123 135.82651764 -0.1139679 134.31900024 C-0.11425591 130.21380656 -0.10835861 126.10864185 -0.10139394 122.00345492 C-0.09516099 117.7179674 -0.09455665 113.43247928 -0.09336853 109.14698792 C-0.09025504 101.02613348 -0.08204141 92.90529244 -0.07201904 84.78444391 C-0.06085845 75.54155126 -0.05534759 66.29865798 -0.05032361 57.05576026 C-0.03985881 38.03716569 -0.02205862 19.01858441 0 0 Z " fill="#12100C" transform="translate(297,204)"/>
<path d="M0 0 C198.33 0 396.66 0 601 0 C601 130.68 601 261.36 601 396 C402.67 396 204.34 396 0 396 C0 265.32 0 134.64 0 0 Z M2 2 C2 131.69 2 261.38 2 395 C199.34 395 396.68 395 600 395 C600 264.98 600 134.96 600 1 C496.54941036 0.97130462 496.54941036 0.97130462 393.09881997 0.95183504 C378.1302647 0.94979373 363.16170944 0.94770576 348.1931542 0.94547401 C346.38248693 0.94520417 344.57181967 0.9449358 342.7611524 0.94466891 C313.87173749 0.94039855 284.98232452 0.93289214 256.09291079 0.92370278 C226.41297871 0.91427906 196.7330477 0.90811662 167.05311415 0.90608501 C162.86548628 0.90579684 158.67785842 0.9054712 154.49023056 0.90512276 C153.66600772 0.90505533 152.84178488 0.90498791 151.99258559 0.90491844 C138.70008457 0.9037346 125.40758688 0.89909081 112.11508722 0.89316797 C98.76665986 0.88729351 85.4182358 0.8850288 72.06980719 0.88649862 C64.12956349 0.88726188 56.1893319 0.88520769 48.24909038 0.87920246 C42.33479328 0.8750332 36.42050466 0.87602658 30.50620662 0.87910111 C28.10241809 0.87952673 25.69862857 0.87823158 23.29484202 0.87511682 C20.04789018 0.87115141 16.80099927 0.87323756 13.55404854 0.87695217 C12.12764475 0.87301165 12.12764475 0.87301165 10.67242473 0.86899152 C9.8136135 0.87123882 8.95480226 0.87348611 8.06996644 0.8758015 C6.95486095 0.87556753 6.95486095 0.87556753 5.81722809 0.87532884 C3.89972908 0.8897411 3.89972908 0.8897411 2 2 Z " fill="#E1CC66" transform="translate(149,88)"/>
<path d="M0 0 C11.55 0 23.1 0 35 0 C35 19.8 35 39.6 35 60 C50.84 60 66.68 60 83 60 C82.98839844 55.90851563 82.97679687 51.81703125 82.96484375 47.6015625 C82.95841499 44.34381135 82.9529914 41.08606198 82.94824982 37.82830811 C82.94296424 34.38682792 82.93589829 30.94537227 82.92456055 27.50390625 C82.91163965 23.55729465 82.90676748 19.61069316 82.90234375 15.6640625 C82.89718246 14.42757965 82.89202118 13.1910968 82.88670349 11.91714478 C82.88662796 10.77611298 82.88655243 9.63508118 82.88647461 8.45947266 C82.884254 7.451315 82.88203339 6.44315735 82.87974548 5.40444946 C83 3 83 3 84 1 C85.32 1 86.64 1 88 1 C88 20.8 88 40.6 88 61 C84.25647061 62.87176469 83.06171475 63.25324354 79.12719727 63.2746582 C78.162621 63.28419022 77.19804474 63.29372223 76.20423889 63.30354309 C75.16875412 63.30263168 74.13326935 63.30172028 73.06640625 63.30078125 C71.99631821 63.30506638 70.92623016 63.3093515 69.82371521 63.31376648 C67.5617646 63.31950671 65.29979553 63.32001231 63.0378418 63.31567383 C59.57894364 63.31251502 56.12090172 63.33597366 52.66210938 63.36132812 C50.46354275 63.36360126 48.26497382 63.36430455 46.06640625 63.36328125 C45.03294571 63.372491 43.99948517 63.38170074 42.93470764 63.39118958 C41.96697922 63.38496078 40.99925079 63.37873199 40.00219727 63.37231445 C39.15488541 63.37294388 38.30757355 63.3735733 37.43458557 63.3742218 C34.27442953 62.88847207 32.47117591 62.03531555 30 60 C29.39872742 57.43733215 29.39872742 57.43733215 29.43237305 54.33520508 C29.4327507 53.17422806 29.43312836 52.01325104 29.43351746 50.8170929 C29.45932388 49.56389755 29.48513031 48.31070221 29.51171875 47.01953125 C29.51879349 45.73640549 29.52586823 44.45327972 29.53315735 43.13127136 C29.55223241 39.72282078 29.60133429 36.3154386 29.65667725 32.90740967 C29.70786071 29.42865718 29.73094332 25.94972659 29.75585938 22.47070312 C29.80680377 15.64619239 29.90465457 8.82461388 30 2 C20.43 1.67 10.86 1.34 1 1 C1 51.82 1 102.64 1 155 C10.57 155 20.14 155 30 155 C29.96519531 150.64296875 29.93039062 146.2859375 29.89453125 141.796875 C29.87523571 138.32079832 29.85896827 134.8447368 29.84474945 131.36863708 C29.82891327 127.70023842 29.80775424 124.032048 29.77368164 120.36376953 C29.74106443 116.83002918 29.72314212 113.29649066 29.71536827 109.76261139 C29.70713469 107.75954018 29.68371893 105.75655007 29.66011047 103.75360107 C29.65988388 102.53263733 29.65965729 101.31167358 29.65942383 100.05371094 C29.65276199 98.97893494 29.64610016 97.90415894 29.63923645 96.79681396 C30.05665929 93.56074968 30.58543977 92.19442013 33 90 C35.44877625 89.51898193 35.44877625 89.51898193 38.3894043 89.54589844 C40.06383606 89.54662354 40.06383606 89.54662354 41.77209473 89.54736328 C43.53039612 89.57805908 43.53039612 89.57805908 45.32421875 89.609375 C46.94148865 89.61541748 46.94148865 89.61541748 48.59143066 89.62158203 C52.62362658 89.64252924 56.65558017 89.69837461 60.6875 89.75 C74.2071875 89.87375 74.2071875 89.87375 88 90 C88.33 111.12 88.66 132.24 89 154 C98.24 154.33 107.48 154.66 117 155 C117 155.33 117 155.66 117 156 C112.80084693 156.09907258 108.60231748 156.17156173 104.40234375 156.21972656 C102.97448879 156.23980982 101.54671575 156.26708252 100.11914062 156.30175781 C98.06359632 156.35042669 96.00914145 156.37299967 93.953125 156.390625 C92.71723633 156.41157227 91.48134766 156.43251953 90.20800781 156.45410156 C86.30913995 155.90220703 85.40254327 155.05107272 83 152 C82.51898193 149.39300537 82.51898193 149.39300537 82.54589844 146.40527344 C82.54620056 145.28441345 82.54650269 144.16355347 82.54681396 143.00872803 C82.56745911 141.80444153 82.58810425 140.60015503 82.609375 139.359375 C82.61503479 138.12205627 82.62069458 136.88473755 82.62652588 135.60992432 C82.64511749 132.32822064 82.68102502 129.04730719 82.7253418 125.76586914 C82.76633835 122.41429933 82.78420499 119.06269556 82.8046875 115.7109375 C82.84539965 109.13999569 82.92369149 102.57101098 83 96 C67.16 96 51.32 96 35 96 C35.01160156 100.24746094 35.02320313 104.49492187 35.03515625 108.87109375 C35.04158318 112.24907146 35.04700741 115.62704744 35.05175018 119.00502777 C35.0570399 122.57571125 35.06411339 126.14637115 35.07543945 129.71704102 C35.08834176 133.81006097 35.09322906 137.9030558 35.09765625 141.99609375 C35.10281754 143.28148544 35.10797882 144.56687714 35.11329651 145.89122009 C35.11337204 147.07236893 35.11344757 148.25351776 35.11352539 149.47045898 C35.115746 150.51636703 35.11796661 151.56227509 35.12025452 152.63987732 C35 155 35 155 34 156 C22.78 156 11.56 156 0 156 C0 104.52 0 53.04 0 0 Z " fill="#D4C368" transform="translate(463,203)"/>
<path d="M0 0 C0.67740234 -0.01224609 1.35480469 -0.02449219 2.05273438 -0.03710938 C5.77191947 -0.04801608 8.53094986 0.13452523 11.6875 2.1875 C11.6875 3.1775 11.6875 4.1675 11.6875 5.1875 C12.265 5.435 12.8425 5.6825 13.4375 5.9375 C16.17867046 7.46037248 17.74393773 8.6966821 19.6875 11.1875 C20.06224368 13.99365152 20.20383914 16.33511173 20.125 19.125 C20.13208984 19.82818359 20.13917969 20.53136719 20.14648438 21.25585938 C20.09157653 25.76252663 19.34837988 28.56556523 16.6875 32.1875 C16.06875 33.074375 15.45 33.96125 14.8125 34.875 C11.48981158 38.49086681 8.71519348 39.11655263 3.83984375 39.453125 C2.43489605 39.45839191 1.02987259 39.45295231 -0.375 39.4375 C-1.08205078 39.44523437 -1.78910156 39.45296875 -2.51757812 39.4609375 C-6.27130595 39.44683899 -9.12856496 39.27153021 -12.3125 37.1875 C-12.3125 35.8675 -12.3125 34.5475 -12.3125 33.1875 C-13.09625 32.878125 -13.88 32.56875 -14.6875 32.25 C-17.3125 31.1875 -17.3125 31.1875 -19.3125 30.1875 C-19.45834064 26.95881254 -19.54674106 23.73097635 -19.625 20.5 C-19.66689453 19.58798828 -19.70878906 18.67597656 -19.75195312 17.73632812 C-19.87592016 10.91814099 -19.87592016 10.91814099 -16.99609375 7.18359375 C-14.16254069 5.07595821 -11.29192686 3.08349891 -8.3125 1.1875 C-6.34773763 -0.77726237 -2.67718224 0.00250438 0 0 Z " fill="#090908" transform="translate(394.3125,319.8125)"/>
<path d="M0 0 C10.89 0 21.78 0 33 0 C33 51.48 33 102.96 33 156 C4 156 4 156 -1 154 C-1.02332743 134.06855057 -1.04097841 114.13710389 -1.05181217 94.20564365 C-1.05697546 84.9517884 -1.06401878 75.69794162 -1.07543945 66.4440918 C-1.08538529 58.38143802 -1.09185319 50.31879037 -1.09408849 42.25613064 C-1.09539577 37.98431479 -1.0984827 33.71251649 -1.10573006 29.44070625 C-1.11248869 25.42464044 -1.11461728 21.40859949 -1.11310768 17.39252853 C-1.11338408 15.91423215 -1.11539013 14.43593499 -1.11920547 12.95764351 C-1.12414021 10.94801043 -1.12239814 8.93836419 -1.12025452 6.9287262 C-1.12117631 5.80137338 -1.1220981 4.67402056 -1.12304783 3.51250553 C-1 1 -1 1 0 0 Z M4 1 C3.97688259 20.93144983 3.95902159 40.86289589 3.94818783 60.79435635 C3.94302454 70.0482116 3.93598122 79.30205838 3.92456055 88.5559082 C3.91461471 96.61856198 3.90814681 104.68120963 3.90591151 112.74386936 C3.90460423 117.01568521 3.9015173 121.28748351 3.89426994 125.55929375 C3.88751131 129.57535956 3.88538272 133.59140051 3.88689232 137.60747147 C3.88661592 139.08576785 3.88460987 140.56406501 3.88079453 142.04235649 C3.87585979 144.05198957 3.87760186 146.06163581 3.87974548 148.0712738 C3.87882369 149.19862662 3.8779019 150.32597944 3.87695217 151.48749447 C3.715073 153.93896361 3.715073 153.93896361 5 155 C13.91 155 22.82 155 32 155 C32 104.18 32 53.36 32 1 C22.76 1 13.52 1 4 1 Z " fill="#B6A455" transform="translate(293,203)"/>
<path d="M0 0 C9.57 0 19.14 0 29 0 C29 51.15 29 102.3 29 155 C19.76 155 10.52 155 1 155 C1 154.67 1 154.34 1 154 C9.58 154 18.16 154 27 154 C27 103.84 27 53.68 27 2 C18.42 2 9.84 2 1 2 C1.00523682 3.89274658 1.01047363 5.78549316 1.01586914 7.7355957 C1.03198794 13.98609491 1.04348195 20.2365892 1.05181217 26.48710346 C1.0570329 30.27714002 1.0641159 34.06715411 1.07543945 37.85717773 C1.08629704 41.51408802 1.09228295 45.17097668 1.09487724 48.82790184 C1.0967263 50.22376025 1.10033699 51.61961747 1.10573006 53.01546669 C1.11297844 54.96903964 1.11340838 56.92263431 1.11352539 58.8762207 C1.115746 59.9887471 1.11796661 61.1012735 1.12025452 62.24751282 C1 65 1 65 0 68 C-20.13 68 -40.26 68 -61 68 C-61 46.22 -61 24.44 -61 2 C-60.01 2 -59.02 2 -58 2 C-57.67 21.14 -57.34 40.28 -57 60 C-53.23142137 61.88428931 -52.05677485 62.24954118 -48.09545898 62.24291992 C-46.63891151 62.24753487 -46.63891151 62.24753487 -45.15293884 62.25224304 C-43.59030052 62.24146477 -43.59030052 62.24146477 -41.99609375 62.23046875 C-40.92126236 62.23001053 -39.84643097 62.22955231 -38.73902893 62.2290802 C-36.46866755 62.22606112 -34.19830818 62.21818511 -31.92797852 62.20581055 C-28.447354 62.18755169 -24.96699555 62.18530094 -21.48632812 62.18554688 C-19.28124769 62.18063159 -17.07616907 62.17480323 -14.87109375 62.16796875 C-13.30541908 62.16629951 -13.30541908 62.16629951 -11.70811462 62.16459656 C-10.25629539 62.15502678 -10.25629539 62.15502678 -8.77514648 62.14526367 C-7.9233934 62.14145187 -7.07164032 62.13764008 -6.19407654 62.13371277 C-3.82148731 62.08379243 -3.82148731 62.08379243 -1 61 C-0.67 40.87 -0.34 20.74 0 0 Z " fill="#6D5C30" transform="translate(551,203)"/>
<path d="M0 0 C8.58 0 17.16 0 26 0 C26 0.33 26 0.66 26 1 C17.75 1 9.5 1 1 1 C1 51.16 1 101.32 1 153 C9.25 153 17.5 153 26 153 C25.98952637 151.07172363 25.97905273 149.14344727 25.96826172 147.15673828 C25.93604611 140.79448308 25.9130462 134.43224715 25.89637566 128.06993294 C25.88592657 124.21145203 25.871747 120.35305915 25.84912109 116.49462891 C25.8274326 112.77287808 25.81543986 109.05121206 25.81024551 105.32940292 C25.80654255 103.90758809 25.79931181 102.48577803 25.78853989 101.06399918 C25.77407881 99.07672886 25.77318354 97.08937369 25.77294922 95.10205078 C25.768508 93.96953888 25.76406677 92.83702698 25.75949097 91.67019653 C26 89 26 89 28 87 C30.51834106 86.75949097 30.51834106 86.75949097 33.73486328 86.77294922 C34.95278564 86.77319092 36.17070801 86.77343262 37.42553711 86.77368164 C38.71081299 86.78391357 39.99608887 86.79414551 41.3203125 86.8046875 C43.08652954 86.80770874 43.08652954 86.80770874 44.88842773 86.81079102 C49.30065793 86.8212808 53.71283275 86.84920319 58.125 86.875 C67.98375 86.91625 77.8425 86.9575 88 87 C88 108.78 88 130.56 88 153 C87.67 153 87.34 153 87 153 C87 131.88 87 110.76 87 89 C77.96625 89.103125 68.9325 89.20625 59.625 89.3125 C55.34523193 89.34984253 55.34523193 89.34984253 50.97900391 89.38793945 C48.72817295 89.42021141 46.47735736 89.45358255 44.2265625 89.48828125 C43.04924561 89.49452515 41.87192871 89.50076904 40.65893555 89.50720215 C38.98432251 89.53711243 38.98432251 89.53711243 37.27587891 89.56762695 C36.30325104 89.57873001 35.33062317 89.58983307 34.32852173 89.60127258 C33.56010956 89.73285263 32.79169739 89.86443268 32 90 C29.69124786 93.46312821 29.73173971 94.85103974 29.68115234 98.94018555 C29.66128265 100.16122482 29.64141296 101.3822641 29.62094116 102.64030457 C29.60361435 104.61852959 29.60361435 104.61852959 29.5859375 106.63671875 C29.56722653 108.00007806 29.54765317 109.36342579 29.5272522 110.72676086 C29.47591716 114.31219655 29.43629901 117.89766978 29.39910889 121.48327637 C29.3590777 125.143242 29.30808824 128.80305374 29.2578125 132.46289062 C29.16000071 139.64186883 29.08049942 146.82072305 29 154 C19.43 154 9.86 154 0 154 C0 103.18 0 52.36 0 0 Z " fill="#4B4124" transform="translate(464,204)"/>
<path d="M0 0 C0.33 0 0.66 0 1 0 C1 19.8 1 39.6 1 60 C16.84 60 32.68 60 49 60 C48.98259766 53.86277344 48.98259766 53.86277344 48.96484375 47.6015625 C48.95841499 44.34381135 48.9529914 41.08606198 48.94824982 37.82830811 C48.94296424 34.38682792 48.93589829 30.94537227 48.92456055 27.50390625 C48.91163965 23.55729465 48.90676748 19.61069316 48.90234375 15.6640625 C48.89718246 14.42757965 48.89202118 13.1910968 48.88670349 11.91714478 C48.88662796 10.77611298 48.88655243 9.63508118 48.88647461 8.45947266 C48.884254 7.451315 48.88203339 6.44315735 48.87974548 5.40444946 C49 3 49 3 50 1 C51.32 1 52.64 1 54 1 C54 20.8 54 40.6 54 61 C50.22315082 62.88842459 49.03759747 63.24951551 45.0637207 63.24291992 C44.08623367 63.24599655 43.10874664 63.24907318 42.10163879 63.25224304 C41.0536058 63.24505753 40.00557281 63.23787201 38.92578125 63.23046875 C37.84620651 63.23001053 36.76663177 63.22955231 35.65434265 63.2290802 C33.37558898 63.2260616 31.0968373 63.21818704 28.81811523 63.20581055 C25.31551882 63.18751577 21.81318615 63.18530116 18.31054688 63.18554688 C16.09895603 63.1806331 13.88736699 63.17480539 11.67578125 63.16796875 C10.62167557 63.16685593 9.56756989 63.1657431 8.48152161 63.16459656 C7.51349106 63.15821671 6.54546051 63.15183685 5.5480957 63.14526367 C4.6919014 63.14145187 3.83570709 63.13764008 2.9535675 63.13371277 C1 63 1 63 0 62 C-0.09396057 60.06693502 -0.11743517 58.13041162 -0.11352539 56.19506836 C-0.11344986 54.95385727 -0.11337433 53.71264618 -0.11329651 52.43382263 C-0.10818911 51.0691626 -0.1029731 49.70450298 -0.09765625 48.33984375 C-0.095792 46.95121817 -0.09436813 45.56259193 -0.09336853 44.17396545 C-0.08954387 40.51278885 -0.07971403 36.8516517 -0.06866455 33.19049072 C-0.05844932 29.45707737 -0.05387067 25.72365766 -0.04882812 21.99023438 C-0.03809171 14.66013823 -0.02101591 7.33007464 0 0 Z " fill="#E9D46C" transform="translate(497,203)"/>
<path d="M0 0 C0.66 0 1.32 0 2 0 C3.31483344 2.62966688 3.14579366 4.60688601 3.17167664 7.55303955 C3.18435577 8.73351364 3.19703491 9.91398773 3.21009827 11.13023376 C3.21899582 12.43207108 3.22789337 13.73390839 3.23706055 15.07519531 C3.24991034 16.45490384 3.26316466 17.83460865 3.27679443 19.21430969 C3.31245112 22.96857616 3.34166197 26.72286654 3.36918616 30.47720051 C3.38667858 32.82273921 3.40555654 35.1682625 3.42493629 37.51378632 C3.49252491 45.69682128 3.55492479 53.87987723 3.61254883 62.06298828 C3.66638844 69.68947486 3.73149011 77.31580884 3.80188721 84.94215894 C3.86182285 91.4891119 3.91387106 98.036097 3.95981437 104.58316302 C3.98738872 108.49354417 4.01814163 112.4038367 4.05682945 116.31412506 C4.09296968 119.9945057 4.11927597 123.67482851 4.1381073 127.35533714 C4.15073571 129.34616381 4.17345207 131.33691853 4.19648743 133.32765198 C4.20070709 134.51940536 4.20492676 135.71115875 4.20927429 136.93902588 C4.2171934 137.97067997 4.22511251 139.00233406 4.2332716 140.0652504 C3.97597714 143.30222745 3.14070872 145.97036011 2 149 C1.34 149 0.68 149 0 149 C0 99.83 0 50.66 0 0 Z " fill="#1F1C14" transform="translate(466,207)"/>
<path d="M0 0 C11.22 0 22.44 0 34 0 C34 20.13 34 40.26 34 61 C32.68 60.67 31.36 60.34 30 60 C30 40.86 30 21.72 30 2 C20.43 1.67 10.86 1.34 1 1 C1 51.82 1 102.64 1 155 C0.67 155 0.34 155 0 155 C0 103.85 0 52.7 0 0 Z " fill="#AD9B53" transform="translate(463,203)"/>
<path d="M0 0 C1.67443176 0.0007251 1.67443176 0.0007251 3.38269043 0.00146484 C4.55489136 0.02192871 5.72709229 0.04239258 6.93481445 0.06347656 C8.55208435 0.06951904 8.55208435 0.06951904 10.20202637 0.07568359 C14.23422229 0.0966308 18.26617587 0.15247618 22.2980957 0.20410156 C35.8177832 0.32785156 35.8177832 0.32785156 49.6105957 0.45410156 C49.9405957 21.57410156 50.2705957 42.69410156 50.6105957 64.45410156 C64.4705957 64.94910156 64.4705957 64.94910156 78.6105957 65.45410156 C78.6105957 65.78410156 78.6105957 66.11410156 78.6105957 66.45410156 C68.7105957 66.45410156 58.8105957 66.45410156 48.6105957 66.45410156 C48.6105957 46.65410156 48.6105957 26.85410156 48.6105957 6.45410156 C44.4286764 4.78133384 42.82903839 4.20408463 38.65258789 4.21118164 C37.69519714 4.20810501 36.7378064 4.20502838 35.75140381 4.20185852 C34.73040588 4.20904404 33.70940796 4.21622955 32.6574707 4.22363281 C31.60150696 4.22409103 30.54554321 4.22454926 29.45758057 4.22502136 C27.23188143 4.22803663 25.00618427 4.23590117 22.78051758 4.24829102 C19.35921838 4.26660894 15.93818895 4.26880019 12.5168457 4.26855469 C10.35538501 4.27346773 8.19392616 4.27929512 6.0324707 4.28613281 C5.00337585 4.28724564 3.97428101 4.28835846 2.91400146 4.289505 C1.96921936 4.29588486 1.02443726 4.30226471 0.05102539 4.30883789 C-0.78438782 4.31264969 -1.61980103 4.31646149 -2.48052979 4.32038879 C-4.39901616 4.24505741 -4.39901616 4.24505741 -5.3894043 5.45410156 C-5.51284456 7.32506268 -5.56732823 9.20061084 -5.59472656 11.07543945 C-5.61467178 12.27660904 -5.634617 13.47777863 -5.65516663 14.71534729 C-5.67187912 16.02261276 -5.68859161 17.32987823 -5.70581055 18.67675781 C-5.72637388 20.02055003 -5.74737018 21.36433568 -5.76878357 22.70811462 C-5.82406849 26.25085143 -5.87344928 29.79364723 -5.92163086 33.33648682 C-5.97179917 36.94931306 -6.02750955 40.56205328 -6.08276367 44.17480469 C-6.19042367 51.26782903 -6.29185109 58.36093044 -6.3894043 65.45410156 C-7.0494043 65.45410156 -7.7094043 65.45410156 -8.3894043 65.45410156 C-8.45894193 57.56980629 -8.51223438 49.68563934 -8.54484081 41.80111313 C-8.560491 38.13992219 -8.58171701 34.4789412 -8.61572266 30.81787109 C-8.64833987 27.28413075 -8.66626218 23.75059223 -8.67403603 20.21671295 C-8.68226961 18.21364175 -8.70568537 16.21065163 -8.72929382 14.20770264 C-8.72952042 12.98673889 -8.72974701 11.76577515 -8.72998047 10.5078125 C-8.7366423 9.4330365 -8.74330414 8.3582605 -8.75016785 7.25091553 C-8.00209804 1.45151567 -5.64036749 -0.05162808 0 0 Z " fill="#C7B764" transform="translate(501.389404296875,292.5458984375)"/>
<path d="M0 0 C0.99 0 1.98 0 3 0 C3.33 20.46 3.66 40.92 4 62 C7.42988038 62.85747009 9.84742996 63.12179183 13.31933594 63.11352539 C14.91053253 63.11341209 14.91053253 63.11341209 16.53387451 63.11329651 C17.67253967 63.10813522 18.81120483 63.10297394 19.984375 63.09765625 C21.15510559 63.0962413 22.32583618 63.09482635 23.53204346 63.09336853 C27.27138829 63.0877709 31.01067326 63.0752188 34.75 63.0625 C37.28515539 63.0574847 39.82031171 63.05292184 42.35546875 63.04882812 C48.57033293 63.03780224 54.78516219 63.02106644 61 63 C61 63.99 61 64.98 61 66 C40.87 66 20.74 66 0 66 C0 44.22 0 22.44 0 0 Z " fill="#4E4729" transform="translate(490,205)"/>
<path d="M0 0 C0.88945312 -0.020625 1.77890625 -0.04125 2.6953125 -0.0625 C8.80312459 -0.09896455 12.06945028 0.48860561 16.61572266 4.77246094 C22.00733017 10.74145974 21.71994423 16.52855618 21.375 24.25 C21.33439453 25.98443359 21.33439453 25.98443359 21.29296875 27.75390625 C21.22270433 30.58790445 21.12438068 33.41794764 21 36.25 C18.730384 37.39829977 16.45939222 38.54371978 14.1875 39.6875 C13.54490234 40.01298828 12.90230469 40.33847656 12.24023438 40.67382812 C5.59504727 44.01363719 0.27506397 45.53814428 -6.96875 43.35546875 C-9.66941247 42.37056221 -12.34202016 41.34446229 -15 40.25 C-15 38.93 -15 37.61 -15 36.25 C-15.99 35.92 -16.98 35.59 -18 35.25 C-17.67 34.26 -17.34 33.27 -17 32.25 C-14.5625 33.5 -14.5625 33.5 -12 35.25 C-11.375 37.375 -11.375 37.375 -11 39.25 C-7.33648419 40.47117194 -3.93947028 40.43406354 -0.125 40.4375 C0.93654297 40.45586914 0.93654297 40.45586914 2.01953125 40.47460938 C6.89440877 40.48822635 10.83765183 40.21031059 14.546875 36.84765625 C17.69869199 32.82601963 19.13369717 30.10130109 19.09765625 25.01953125 C19.09443359 24.21708984 19.09121094 23.41464844 19.08789062 22.58789062 C19.07951172 21.75451172 19.07113281 20.92113281 19.0625 20.0625 C19.05798828 19.21751953 19.05347656 18.37253906 19.04882812 17.50195312 C19.03705403 15.41793845 19.0191189 13.33396023 19 11.25 C18.401875 10.96125 17.80375 10.6725 17.1875 10.375 C12.18390805 7.80172414 12.18390805 7.80172414 11 4.25 C7.45305244 3.06768415 4.19322247 3.02813884 0.5 3 C-0.17675781 2.979375 -0.85351562 2.95875 -1.55078125 2.9375 C-5.43164317 2.85355778 -5.43164317 2.85355778 -8.7421875 4.63671875 C-9.15726562 5.16910156 -9.57234375 5.70148438 -10 6.25 C-11.18497283 6.97702482 -12.39436717 7.66576317 -13.625 8.3125 C-17.03314359 9.85541916 -17.03314359 9.85541916 -18 12.25 C-18.15123831 13.7695764 -18.24881693 15.29472502 -18.31640625 16.8203125 C-18.35830078 17.71621094 -18.40019531 18.61210937 -18.44335938 19.53515625 C-18.48267578 20.47230469 -18.52199219 21.40945313 -18.5625 22.375 C-18.60568359 23.31988281 -18.64886719 24.26476562 -18.69335938 25.23828125 C-18.79959072 27.57537092 -18.90163176 29.9125683 -19 32.25 C-19.33 32.25 -19.66 32.25 -20 32.25 C-20.05830787 28.85423938 -20.09369946 25.4586085 -20.125 22.0625 C-20.14175781 21.10279297 -20.15851563 20.14308594 -20.17578125 19.15429688 C-20.18222656 18.22294922 -20.18867188 17.29160156 -20.1953125 16.33203125 C-20.20578613 15.47843018 -20.21625977 14.6248291 -20.22705078 13.74536133 C-19.97204194 10.94273185 -19.15541422 8.80270581 -18 6.25 C-17.01 6.25 -16.02 6.25 -15 6.25 C-15 4.6 -15 2.95 -15 1.25 C-10.03680053 -0.03215986 -5.09075598 0.02951163 0 0 Z " fill="#A08F4C" transform="translate(394,317.75)"/>
<path d="M0 0 C1.17719604 0.0002417 2.35439209 0.0004834 3.56726074 0.00073242 C4.80423706 0.01096436 6.04121338 0.02119629 7.31567383 0.03173828 C8.45282837 0.03375244 9.58998291 0.0357666 10.76159668 0.0378418 C15.01534043 0.04831725 19.26902674 0.07623976 23.52270508 0.10205078 C37.78489258 0.16392578 37.78489258 0.16392578 52.33520508 0.22705078 C52.33520508 21.67705078 52.33520508 43.12705078 52.33520508 65.22705078 C52.00520508 65.22705078 51.67520508 65.22705078 51.33520508 65.22705078 C51.33520508 44.10705078 51.33520508 22.98705078 51.33520508 1.22705078 C42.30145508 1.33017578 33.26770508 1.43330078 23.96020508 1.53955078 C21.10702637 1.5644458 18.25384766 1.58934082 15.31420898 1.61499023 C13.06337802 1.64726219 10.81256244 1.68063333 8.56176758 1.71533203 C7.38445068 1.72157593 6.20713379 1.72781982 4.99414062 1.73425293 C3.31952759 1.76416321 3.31952759 1.76416321 1.61108398 1.79467773 C0.15214218 1.81133232 0.15214218 1.81133232 -1.33627319 1.82832336 C-2.10468536 1.95990341 -2.87309753 2.09148346 -3.66479492 2.22705078 C-5.97354706 5.69017899 -5.93305521 7.07809052 -5.98364258 11.16723633 C-6.00351227 12.3882756 -6.02338196 13.60931488 -6.04385376 14.86735535 C-6.05540497 16.18617203 -6.06695618 17.50498871 -6.07885742 18.86376953 C-6.09756839 20.22712884 -6.11714176 21.59047657 -6.13754272 22.95381165 C-6.18887776 26.53924733 -6.22849591 30.12472056 -6.26568604 33.71032715 C-6.30571723 37.37029317 -6.35681357 41.0301028 -6.40698242 44.68994141 C-6.50375787 51.86887058 -6.58815724 59.0478754 -6.66479492 66.22705078 C-7.32479492 66.22705078 -7.98479492 66.22705078 -8.66479492 66.22705078 C-8.73422414 57.91706091 -8.78756981 49.60719168 -8.82023144 41.29698372 C-8.83590531 37.43844503 -8.85717447 33.58010438 -8.89111328 29.72167969 C-8.92364612 25.99991782 -8.94163496 22.27834675 -8.94942665 18.5564537 C-8.95498117 17.13462189 -8.96582753 15.71280082 -8.98198509 14.29104996 C-9.00367609 12.30383692 -9.00501961 10.31643295 -9.00537109 8.32910156 C-9.01203293 7.19658966 -9.01869476 6.06407776 -9.02555847 4.89724731 C-8.9065065 4.01608246 -8.78745453 3.1349176 -8.66479492 2.22705078 C-5.23791744 -0.0575342 -4.02539182 -0.01746374 0 0 Z " fill="#746C39" transform="translate(499.664794921875,291.77294921875)"/>
<path d="M0 0 C0.67740234 -0.01224609 1.35480469 -0.02449219 2.05273438 -0.03710938 C5.77191947 -0.04801608 8.53094986 0.13452523 11.6875 2.1875 C11.6875 3.1775 11.6875 4.1675 11.6875 5.1875 C12.265 5.435 12.8425 5.6825 13.4375 5.9375 C16.17867046 7.46037248 17.74393773 8.6966821 19.6875 11.1875 C20.06224368 13.99365152 20.20383914 16.33511173 20.125 19.125 C20.13208984 19.82818359 20.13917969 20.53136719 20.14648438 21.25585938 C20.09157653 25.76252663 19.34837988 28.56556523 16.6875 32.1875 C16.06875 33.074375 15.45 33.96125 14.8125 34.875 C11.48981158 38.49086681 8.71519348 39.11655263 3.83984375 39.453125 C2.43489605 39.45839191 1.02987259 39.45295231 -0.375 39.4375 C-1.08205078 39.44523437 -1.78910156 39.45296875 -2.51757812 39.4609375 C-6.27130595 39.44683899 -9.12856496 39.27153021 -12.3125 37.1875 C-12.3125 35.8675 -12.3125 34.5475 -12.3125 33.1875 C-13.09625 32.878125 -13.88 32.56875 -14.6875 32.25 C-17.3125 31.1875 -17.3125 31.1875 -19.3125 30.1875 C-19.45834064 26.95881254 -19.54674106 23.73097635 -19.625 20.5 C-19.66689453 19.58798828 -19.70878906 18.67597656 -19.75195312 17.73632812 C-19.87592016 10.91814099 -19.87592016 10.91814099 -16.99609375 7.18359375 C-14.16254069 5.07595821 -11.29192686 3.08349891 -8.3125 1.1875 C-6.34773763 -0.77726237 -2.67718224 0.00250438 0 0 Z M-4.3125 1.1875 C-4.6425 2.1775 -4.9725 3.1675 -5.3125 4.1875 C-7.28996603 4.91830266 -9.29322489 5.58171747 -11.3125 6.1875 C-12.3025 6.8475 -13.2925 7.5075 -14.3125 8.1875 C-14.3125 8.8475 -14.3125 9.5075 -14.3125 10.1875 C-16.2925 11.1775 -16.2925 11.1775 -18.3125 12.1875 C-18.3934723 14.62566585 -18.45296972 17.06114384 -18.5 19.5 C-18.52513672 20.19029297 -18.55027344 20.88058594 -18.57617188 21.59179688 C-18.68197028 25.58057708 -18.68197028 25.58057708 -16.93359375 29.0390625 C-16.39863281 29.41804688 -15.86367188 29.79703125 -15.3125 30.1875 C-11.42678571 33.95892857 -11.42678571 33.95892857 -10.3125 36.1875 C-7.52025927 36.26821788 -4.73033434 36.32785408 -1.9375 36.375 C-0.74640625 36.41270508 -0.74640625 36.41270508 0.46875 36.45117188 C2.54336148 36.47754405 4.61850865 36.34236462 6.6875 36.1875 C7.3475 35.1975 8.0075 34.2075 8.6875 33.1875 C9.6775 32.8575 10.6675 32.5275 11.6875 32.1875 C11.6875 31.5275 11.6875 30.8675 11.6875 30.1875 C13.3375 30.1875 14.9875 30.1875 16.6875 30.1875 C19.85739426 24.98887341 19.27116237 19.06060261 18.6875 13.1875 C17.73812674 10.26925605 16.96899317 9.40895388 14.6875 7.1875 C12.70393517 6.47341666 10.70434563 5.80132258 8.6875 5.1875 C8.0275 3.8675 7.3675 2.5475 6.6875 1.1875 C3.0575 1.1875 -0.5725 1.1875 -4.3125 1.1875 Z " fill="#36321B" transform="translate(394.3125,319.8125)"/>
<path d="M0 0 C1.32 0 2.64 0 4 0 C4 19.47 4 38.94 4 59 C3.01 58.67 2.02 58.34 1 58 C-0.29663922 55.40672157 -0.12003569 53.53591932 -0.11352539 50.63232422 C-0.11344986 49.51131317 -0.11337433 48.39030212 -0.11329651 47.23532104 C-0.10813522 46.02071198 -0.10297394 44.80610291 -0.09765625 43.5546875 C-0.0962413 42.31453888 -0.09482635 41.07439026 -0.09336853 39.79666138 C-0.08871096 36.49881867 -0.07972439 33.20102454 -0.06866455 29.90319824 C-0.05843731 26.53833613 -0.05386809 23.17346692 -0.04882812 19.80859375 C-0.03778269 13.20571007 -0.02103247 6.60285901 0 0 Z " fill="#EAD368" transform="translate(546,299)"/>
<path d="M0 0 C0.33 0 0.66 0 1 0 C1 19.8 1 39.6 1 60 C-2.78916693 61.89458347 -3.96507407 62.24760271 -7.95214844 62.22705078 C-8.93286316 62.22689972 -9.91357788 62.22674866 -10.92401123 62.22659302 C-12.5007663 62.21110916 -12.5007663 62.21110916 -14.109375 62.1953125 C-15.19132141 62.1924826 -16.27326782 62.18965271 -17.38800049 62.18673706 C-20.84211304 62.17554609 -24.29596588 62.1504432 -27.75 62.125 C-30.09244417 62.11496881 -32.43489241 62.1058432 -34.77734375 62.09765625 C-40.51831771 62.0756103 -46.2591403 62.04214334 -52 62 C-52.33 61.34 -52.66 60.68 -53 60 C-36.5 59.67 -20 59.34 -3 59 C-2.95101562 54.99230469 -2.90203125 50.98460937 -2.8515625 46.85546875 C-2.80702755 43.66056617 -2.76053175 40.46570552 -2.71270752 37.27085114 C-2.66275718 33.89797483 -2.61626551 30.52513189 -2.578125 27.15209961 C-2.53257165 23.2822002 -2.47456059 19.41265975 -2.4140625 15.54296875 C-2.40251129 14.33352097 -2.39096008 13.12407318 -2.37905884 11.87797546 C-2.35918915 10.75703995 -2.33931946 9.63610443 -2.31884766 8.48120117 C-2.30552399 7.49302902 -2.29220032 6.50485687 -2.2784729 5.48674011 C-2 3 -2 3 0 0 Z " fill="#CBB65C" transform="translate(550,204)"/>
<path d="M0 0 C0.93714922 3.11751998 1.05686895 5.74149909 0.87890625 8.984375 C0.83056641 9.91894531 0.78222656 10.85351562 0.73242188 11.81640625 C0.67634766 12.78449219 0.62027344 13.75257813 0.5625 14.75 C0.51029297 15.73355469 0.45808594 16.71710938 0.40429688 17.73046875 C0.27488563 20.15398849 0.13993095 22.57706864 0 25 C0.66 25 1.32 25 2 25 C2.33 25.99 2.66 26.98 3 28 C3.66 28.33 4.32 28.66 5 29 C5 30.32 5 31.64 5 33 C6.051875 33.185625 6.051875 33.185625 7.125 33.375 C10 34 10 34 12.8125 35.0625 C21.1257721 37.50758003 27.2467333 35.19252158 35 32 C34.67 32.99 34.34 33.98 34 35 C33.01 35.33 32.02 35.66 31 36 C30.67 36.99 30.34 37.98 30 39 C23.65758005 40.15316726 17.43311296 40.09507063 11 40 C10.67 38.68 10.34 37.36 10 36 C8.35 35.67 6.7 35.34 5 35 C4.505 33.515 4.505 33.515 4 32 C3.35289062 31.85175781 2.70578125 31.70351563 2.0390625 31.55078125 C1.36617188 31.36902344 0.69328125 31.18726563 0 31 C-0.9765625 29.29296875 -0.9765625 29.29296875 -1.625 27.1875 C-2.35694021 24.9276846 -2.97161952 23.04779871 -4.1875 21 C-6.04245546 16.43395579 -5.57173901 12.5120206 -3.87890625 8.03515625 C-2.64600147 5.32136868 -1.36399271 2.65004297 0 0 Z " fill="#E2CC6B" transform="translate(374,325)"/>
<path d="M0 0 C0.66 0 1.32 0 2 0 C1.125 3.875 1.125 3.875 0 5 C-0.12344027 6.87096111 -0.17792394 8.74650928 -0.20532227 10.62133789 C-0.22526749 11.82250748 -0.24521271 13.02367706 -0.26576233 14.26124573 C-0.28247482 15.5685112 -0.29918732 16.87577667 -0.31640625 18.22265625 C-0.33696958 19.56644847 -0.35796588 20.91023412 -0.37937927 22.25401306 C-0.43466419 25.79674987 -0.48404498 29.33954567 -0.53222656 32.88238525 C-0.58239487 36.4952115 -0.63810525 40.10795172 -0.69335938 43.72070312 C-0.80101937 50.81372747 -0.9024468 57.90682888 -1 65 C-1.66 65 -2.32 65 -3 65 C-3.06953763 57.11570473 -3.12283008 49.23153778 -3.15543652 41.34701157 C-3.17108671 37.68582063 -3.19231272 34.02483964 -3.22631836 30.36376953 C-3.25893557 26.83002918 -3.27685788 23.29649066 -3.28463173 19.76261139 C-3.29286531 17.75954018 -3.31628107 15.75655007 -3.33988953 13.75360107 C-3.34011612 12.53263733 -3.34034271 11.31167358 -3.34057617 10.05371094 C-3.34723801 8.97893494 -3.35389984 7.90415894 -3.36076355 6.79681396 C-2.9538711 3.6423864 -2.22173071 2.24656904 0 0 Z " fill="#9D914E" transform="translate(496,293)"/>
<path d="M0 0 C0.33 0 0.66 0 1 0 C1 6.93 1 13.86 1 21 C-1.248125 22.134375 -3.49625 23.26875 -5.8125 24.4375 C-6.86787964 24.97201782 -6.86787964 24.97201782 -7.94458008 25.51733398 C-14.52407 28.82172523 -19.81053106 30.26235314 -26.96875 28.10546875 C-29.66941247 27.12056221 -32.34202016 26.09446229 -35 25 C-35 23.68 -35 22.36 -35 21 C-35.99 20.67 -36.98 20.34 -38 20 C-37.505 18.515 -37.505 18.515 -37 17 C-34.5625 18.25 -34.5625 18.25 -32 20 C-31.375 22.125 -31.375 22.125 -31 24 C-27.33648419 25.22117194 -23.93947028 25.18406354 -20.125 25.1875 C-19.06345703 25.20586914 -19.06345703 25.20586914 -17.98046875 25.22460938 C-13.10559123 25.23822635 -9.16234817 24.96031059 -5.453125 21.59765625 C-1.50447244 16.55927815 -0.84274333 13.12271753 -0.4375 6.8125 C-0.35371094 5.54019531 -0.26992188 4.26789063 -0.18359375 2.95703125 C-0.09271484 1.49330078 -0.09271484 1.49330078 0 0 Z " fill="#9A8D4B" transform="translate(414,333)"/>
<path d="M0 0 C0.72182968 0.32498978 1.44365936 0.64997955 2.18736267 0.9848175 C5.02528347 2.00912572 7.00714565 2.24795703 10.00219727 2.24291992 C10.96992569 2.24599655 11.93765411 2.24907318 12.93470764 2.25224304 C14.48489845 2.24146477 14.48489845 2.24146477 16.06640625 2.23046875 C17.13745102 2.23001053 18.20849579 2.22955231 19.31199646 2.2290802 C21.57218537 2.22606391 23.83237231 2.21819629 26.0925293 2.20581055 C29.5532975 2.18754856 33.013798 2.18530103 36.47460938 2.18554688 C38.67187731 2.18063151 40.86914344 2.17480311 43.06640625 2.16796875 C44.10189102 2.16685593 45.13737579 2.1657431 46.20423889 2.16459656 C47.16881516 2.15821671 48.13339142 2.15183685 49.12719727 2.14526367 C50.39697166 2.13954597 50.39697166 2.13954597 51.69239807 2.13371277 C53.92108917 2.00457245 55.86060243 1.61946701 58 1 C57.67 1.99 57.34 2.98 57 4 C54.05270749 4.98243084 52.09960455 5.13755563 49.02539062 5.16113281 C48.01424194 5.17074036 47.00309326 5.1803479 45.96130371 5.19024658 C44.32530212 5.1966214 44.32530212 5.1966214 42.65625 5.203125 C41.53561157 5.20882507 40.41497314 5.21452515 39.26037598 5.22039795 C36.88990219 5.22984684 34.51941527 5.23638149 32.14892578 5.24023438 C28.51441758 5.24996141 24.88046971 5.28099518 21.24609375 5.3125 C18.94531587 5.31902788 16.64453393 5.32427919 14.34375 5.328125 C12.70774841 5.3466452 12.70774841 5.3466452 11.03869629 5.36553955 C10.02754761 5.36253845 9.01639893 5.35953735 7.97460938 5.35644531 C7.0843103 5.36009094 6.19401123 5.36373657 5.2767334 5.36749268 C2.54009816 4.92576621 1.63511232 4.20390178 0 2 C0 1.34 0 0.68 0 0 Z " fill="#837442" transform="translate(493,263)"/>
<path d="M0 0 C1.66611905 -0.042721 3.33382885 -0.04063832 5 0 C6.75533958 1.75533958 6.17046549 4.23613828 6.20532227 6.62133789 C6.22526749 7.82250748 6.24521271 9.02367706 6.26576233 10.26124573 C6.28247482 11.5685112 6.29918732 12.87577667 6.31640625 14.22265625 C6.33696958 15.56644847 6.35796588 16.91023412 6.37937927 18.25401306 C6.43466419 21.79674987 6.48404498 25.33954567 6.53222656 28.88238525 C6.58239487 32.4952114 6.63805148 36.10795261 6.69335938 39.72070312 C6.80154091 46.81373747 6.9005134 53.90681695 7 61 C20.86 61.495 20.86 61.495 35 62 C35 62.33 35 62.66 35 63 C25.1 63 15.2 63 5 63 C5 43.2 5 23.4 5 3 C2.525 2.01 2.525 2.01 0 1 C0 0.67 0 0.34 0 0 Z " fill="#CEBA5F" transform="translate(545,296)"/>
<path d="M0 0 C0.67740234 -0.01224609 1.35480469 -0.02449219 2.05273438 -0.03710938 C5.77191947 -0.04801608 8.53094986 0.13452523 11.6875 2.1875 C11.6875 3.1775 11.6875 4.1675 11.6875 5.1875 C13.1725 5.6825 13.1725 5.6825 14.6875 6.1875 C12.6875 7.1875 12.6875 7.1875 10.125 6.4375 C7.6875 5.1875 7.6875 5.1875 6.6875 2.1875 C4.91742286 2.10635894 3.14627902 2.04824495 1.375 2 C0.38886719 1.96519531 -0.59726562 1.93039062 -1.61328125 1.89453125 C-4.74690745 2.23464987 -5.3424547 2.84662265 -7.3125 5.1875 C-8.281875 5.661875 -9.25125 6.13625 -10.25 6.625 C-13.50544659 8.28594214 -15.12762549 9.26666776 -17.3125 12.1875 C-17.94236335 15.26363761 -18.00865191 18.30452002 -18.0625 21.4375 C-18.09214844 22.27796875 -18.12179687 23.1184375 -18.15234375 23.984375 C-18.22281636 26.0515715 -18.26994939 28.11954033 -18.3125 30.1875 C-18.6425 30.1875 -18.9725 30.1875 -19.3125 30.1875 C-19.45834064 26.95881254 -19.54674106 23.73097635 -19.625 20.5 C-19.66689453 19.58798828 -19.70878906 18.67597656 -19.75195312 17.73632812 C-19.87592016 10.91814099 -19.87592016 10.91814099 -16.99609375 7.18359375 C-14.16254069 5.07595821 -11.29192686 3.08349891 -8.3125 1.1875 C-6.34773763 -0.77726237 -2.67718224 0.00250438 0 0 Z " fill="#4B4022" transform="translate(394.3125,319.8125)"/>
<path d="M0 0 C0.33 0 0.66 0 1 0 C1.02312792 7.80575195 1.04091738 15.61149595 1.05181217 23.41727352 C1.05704002 27.0414596 1.06413587 30.6656223 1.07543945 34.28979492 C1.08627184 37.78459975 1.09227758 41.27938204 1.09487724 44.77420235 C1.09763551 46.76239389 1.10544688 48.75057631 1.11329651 50.73875427 C1.11337204 51.93992386 1.11344757 53.14109344 1.11352539 54.37866211 C1.115746 55.44233505 1.11796661 56.506008 1.12025452 57.60191345 C1 60 1 60 0 61 C-2.52094076 61.08847743 -5.01430893 61.11527301 -7.53515625 61.09765625 C-8.66503212 61.09553383 -8.66503212 61.09553383 -9.81773376 61.09336853 C-12.2326956 61.08775376 -14.64756601 61.07519883 -17.0625 61.0625 C-18.69596221 61.0574869 -20.32942586 61.05292366 -21.96289062 61.04882812 C-25.97529585 61.03777954 -29.98763241 61.02050506 -34 61 C-34 60.67 -34 60.34 -34 60 C-23.44 59.67 -12.88 59.34 -2 59 C-1.24610459 55.23052296 -0.8564885 52.24579877 -0.79467773 48.4753418 C-0.77473251 47.39459885 -0.75478729 46.3138559 -0.73423767 45.20036316 C-0.71752518 44.0449855 -0.70081268 42.88960785 -0.68359375 41.69921875 C-0.66281265 40.50770706 -0.64203156 39.31619537 -0.62062073 38.08857727 C-0.55531821 34.28827597 -0.49632982 30.48790648 -0.4375 26.6875 C-0.39429644 24.10871695 -0.35068156 21.52994076 -0.30664062 18.95117188 C-0.19965655 12.63418634 -0.09785445 6.3171332 0 0 Z " fill="#DBC768" transform="translate(497,298)"/>
<path d="M0 0 C0.87687614 3.00778872 1.10671568 5.64579192 1.0625 8.7734375 C1.05476563 9.6809375 1.04703125 10.5884375 1.0390625 11.5234375 C1.01312783 13.41666814 0.98708705 15.30989732 0.9609375 17.203125 C0.92077391 21.92904054 1.00484988 26.35078305 2 31 C1.34 31 0.68 31 0 31 C-0.45375 29.7625 -0.9075 28.525 -1.375 27.25 C-2.19762744 25.01993888 -2.97257334 23.04619227 -4.1875 21 C-6.04245546 16.43395579 -5.57173901 12.5120206 -3.87890625 8.03515625 C-2.64600147 5.32136868 -1.36399271 2.65004297 0 0 Z " fill="#ECD76B" transform="translate(374,325)"/>
<path d="M0 0 C0.88945312 -0.020625 1.77890625 -0.04125 2.6953125 -0.0625 C7.62095746 -0.09190684 11.0512088 -0.02586985 15 3.25 C16.8359375 5.15234375 16.8359375 5.15234375 18.375 7.1875 C19.16003906 8.19103516 19.16003906 8.19103516 19.9609375 9.21484375 C21 11.25 21 11.25 20.6640625 13.50390625 C20.33535156 14.36822266 20.33535156 14.36822266 20 15.25 C19.51080078 14.45335937 19.51080078 14.45335937 19.01171875 13.640625 C15.22019431 6.5613335 15.22019431 6.5613335 9 2.25 C7.59335074 2.10507877 6.1818867 2.00371069 4.76953125 1.93359375 C3.56586914 1.87075195 3.56586914 1.87075195 2.33789062 1.80664062 C1.50451172 1.76732422 0.67113281 1.72800781 -0.1875 1.6875 C-1.03248047 1.64431641 -1.87746094 1.60113281 -2.74804688 1.55664062 C-4.83184433 1.45068482 -6.91590103 1.3498498 -9 1.25 C-9.33 2.24 -9.66 3.23 -10 4.25 C-12.5625 5.4375 -12.5625 5.4375 -15 6.25 C-15 4.6 -15 2.95 -15 1.25 C-10.03680053 -0.03215986 -5.09075598 0.02951163 0 0 Z " fill="#D2BD62" transform="translate(394,317.75)"/>
<path d="M0 0 C17.49 0 34.98 0 53 0 C52.67 1.32 52.34 2.64 52 4 C51.22962402 3.67854004 50.45924805 3.35708008 49.66552734 3.02587891 C44.84938794 1.67797576 40.33055034 1.64491185 35.3515625 1.5859375 C33.83276993 1.55688828 33.83276993 1.55688828 32.28329468 1.5272522 C29.06394758 1.46769277 25.84456426 1.42116552 22.625 1.375 C20.43618272 1.33679849 18.24738012 1.2977455 16.05859375 1.2578125 C10.70585995 1.16201077 5.353037 1.07689467 0 1 C0 0.67 0 0.34 0 0 Z " fill="#B7A758" transform="translate(498,293)"/>
<path d="M0 0 C3.875 1.75 3.875 1.75 5 4 C5.15112939 6.61860735 5.23133862 9.19290882 5.25 11.8125 C5.270625 12.52470703 5.29125 13.23691406 5.3125 13.97070312 C5.36559681 21.1454099 2.41481402 24.67177618 -2 30 C-2.99 29.67 -3.98 29.34 -5 29 C-4.34 29 -3.68 29 -3 29 C-2.67 27.35 -2.34 25.7 -2 24 C-0.68 23.67 0.64 23.34 2 23 C3.06840747 19.48459479 3.1995806 16.16380958 3.25 12.5 C3.27578125 11.3759375 3.3015625 10.251875 3.328125 9.09375 C2.96855898 5.70355606 2.17998432 4.52419237 0 2 C0 1.34 0 0.68 0 0 Z " fill="#665D30" transform="translate(409,327)"/>
<path d="M0 0 C0 0.99 0 1.98 0 3 C-0.99 3.33 -1.98 3.66 -3 4 C-3.33 4.99 -3.66 5.98 -4 7 C-6.29109597 7.08075665 -8.58299267 7.13907731 -10.875 7.1875 C-12.78925781 7.23970703 -12.78925781 7.23970703 -14.7421875 7.29296875 C-15.81726563 7.19628906 -16.89234375 7.09960938 -18 7 C-18.66 6.01 -19.32 5.02 -20 4 C-19.39414062 4.04640625 -18.78828125 4.0928125 -18.1640625 4.140625 C-11.25855509 4.43809301 -6.20786398 2.95864155 0 0 Z " fill="#D0BE65" transform="translate(408,357)"/>
<path d="M0 0 C2.31 0 4.62 0 7 0 C7.309375 0.928125 7.309375 0.928125 7.625 1.875 C9.54095405 4.8360199 11.71223468 4.92644398 15 6 C16.875 8.125 16.875 8.125 18 10 C17.67 10.66 17.34 11.32 17 12 C16.01 11.67 15.02 11.34 14 11 C13.69964844 10.3503125 13.39929688 9.700625 13.08984375 9.03125 C12.17439252 6.82446569 12.17439252 6.82446569 9.94140625 6.09375 C9.15636719 5.8978125 8.37132812 5.701875 7.5625 5.5 C3.22391514 4.23748576 3.22391514 4.23748576 0.9375 1.8125 C0.628125 1.214375 0.31875 0.61625 0 0 Z " fill="#262314" transform="translate(394,321)"/>
<path d="M0 0 C0.33 0 0.66 0 1 0 C1 6.93 1 13.86 1 21 C-0.98 21.99 -2.96 22.98 -5 24 C-4.58835849 21.11850946 -4.14528152 19.21489559 -2.5 16.78125 C-0.62826075 13.31073348 -0.49576401 10.60934975 -0.3125 6.6875 C-0.24675781 5.43324219 -0.18101562 4.17898438 -0.11328125 2.88671875 C-0.07589844 1.93410156 -0.03851563 0.98148437 0 0 Z " fill="#978D42" transform="translate(414,333)"/>
<path d="M0 0 C0.33 0.99 0.66 1.98 1 3 C1.99 3 2.98 3 4 3 C4 6.3 4 9.6 4 13 C2.02 13.99 2.02 13.99 0 15 C0 10.05 0 5.1 0 0 Z " fill="#E2D36A" transform="translate(415,333)"/>
<path d="M0 0 C0 4.29 0 8.58 0 13 C-3 10 -3 10 -3.29296875 7.73828125 C-3.25816406 6.93777344 -3.22335937 6.13726562 -3.1875 5.3125 C-3.16042969 4.50425781 -3.13335937 3.69601562 -3.10546875 2.86328125 C-3.07066406 2.24839844 -3.03585937 1.63351562 -3 1 C-1 0 -1 0 0 0 Z " fill="#D6C15E" transform="translate(374,334)"/>
<path d="M0 0 C2.64 0.33 5.28 0.66 8 1 C8.103125 1.639375 8.20625 2.27875 8.3125 2.9375 C8.6528125 3.9584375 8.6528125 3.9584375 9 5 C9.99 5.33 10.98 5.66 12 6 C10 7 10 7 7.4375 6.25 C5 5 5 5 4 2 C1.99983534 0.79117904 1.99983534 0.79117904 0 0 Z " fill="#5E5430" transform="translate(397,320)"/>
<path d="M0 0 C0.33 0.66 0.66 1.32 1 2 C1.804375 2.268125 2.60875 2.53625 3.4375 2.8125 C6 4 6 4 7.1875 6.5625 C7.455625 7.366875 7.72375 8.17125 8 9 C8.66 9.33 9.32 9.66 10 10 C8.68 10 7.36 10 6 10 C6 8.68 6 7.36 6 6 C5.195625 5.7525 4.39125 5.505 3.5625 5.25 C1 4 1 4 0.1875 1.875 C0.125625 1.25625 0.06375 0.6375 0 0 Z " fill="#2A2715" transform="translate(376,347)"/>
<path d="M0 0 C0.33 0.99 0.66 1.98 1 3 C-0.40445835 5.2636564 -2.1967913 7.0208685 -4 9 C-4.99 8.67 -5.98 8.34 -7 8 C-6.34 8 -5.68 8 -5 8 C-4.67 6.35 -4.34 4.7 -4 3 C-2.68 2.67 -1.36 2.34 0 2 C0 1.34 0 0.68 0 0 Z " fill="#434020" transform="translate(411,348)"/>
<path d="M0 0 C2.31 0 4.62 0 7 0 C6.67 1.32 6.34 2.64 6 4 C4.02 3.34 2.04 2.68 0 2 C0 1.34 0 0.68 0 0 Z " fill="#B1A450" transform="translate(544,293)"/>
<path d="M0 0 C0.33 0 0.66 0 1 0 C1 1.98 1 3.96 1 6 C-0.98 6.99 -2.96 7.98 -5 9 C-5 8.01 -5 7.02 -5 6 C-3.68212715 4.97971135 -2.34789347 3.98028616 -1 3 C-0.67 2.01 -0.34 1.02 0 0 Z " fill="#CBBA5F" transform="translate(414,348)"/>
<path d="M0 0 C0 3 0 3 -1.5 4.6875 C-1.995 5.120625 -2.49 5.55375 -3 6 C-3.99 5.67 -4.98 5.34 -6 5 C-3.375 1.125 -3.375 1.125 0 0 Z " fill="#EFDF76" transform="translate(414,354)"/>
<path d="M0 0 C1.98 0.99 3.96 1.98 6 3 C6 3.99 6 4.98 6 6 C5.34 6 4.68 6 4 6 C4 5.34 4 4.68 4 4 C2.68 3.67 1.36 3.34 0 3 C0 2.01 0 1.02 0 0 Z " fill="#6B5F30" transform="translate(376,350)"/>
<path d="M0 0 C0.66 0 1.32 0 2 0 C1.40072174 3.35595828 0.15377564 5.37801226 -2 8 C-2.125 5.125 -2.125 5.125 -2 2 C-1.34 1.34 -0.68 0.68 0 0 Z " fill="#988E4D" transform="translate(496,293)"/>
<path d="M0 0 C-2 2 -4 4 -6 6 C-6 4.02 -6 2.04 -6 0 C-3.50907189 -1.24546405 -2.58919267 -0.7767578 0 0 Z " fill="#666236" transform="translate(498,293)"/>
</svg>
