<svg xmlns="http://www.w3.org/2000/svg" xmlns:xlink="http://www.w3.org/1999/xlink" width="500" zoomAndPan="magnify" viewBox="0 0 375 374.999991" height="500" preserveAspectRatio="xMidYMid meet" version="1.0"><defs><g/></defs><g fill="#ffffff" fill-opacity="1"><g transform="translate(341.379081, 187.541164)"><g><path d="M 14.125 -7.59375 C 11.375 -7.59375 9.078125 -8.070312 7.234375 -9.03125 C 5.390625 -10 4.007812 -11.316406 3.09375 -12.984375 C 2.1875 -14.660156 1.734375 -16.578125 1.734375 -18.734375 C 1.734375 -20.898438 2.1875 -22.816406 3.09375 -24.484375 C 4.007812 -26.160156 5.390625 -27.476562 7.234375 -28.4375 C 9.078125 -29.394531 11.375 -29.875 14.125 -29.875 C 16.90625 -29.875 19.210938 -29.394531 21.046875 -28.4375 C 22.878906 -27.476562 24.25 -26.160156 25.15625 -24.484375 C 26.070312 -22.816406 26.53125 -20.898438 26.53125 -18.734375 C 26.53125 -16.578125 26.070312 -14.660156 25.15625 -12.984375 C 24.25 -11.316406 22.878906 -10 21.046875 -9.03125 C 19.210938 -8.070312 16.90625 -7.59375 14.125 -7.59375 Z M 14.125 -11.546875 C 16.882812 -11.546875 18.984375 -12.144531 20.421875 -13.34375 C 21.859375 -14.550781 22.578125 -16.347656 22.578125 -18.734375 C 22.578125 -21.148438 21.859375 -22.953125 20.421875 -24.140625 C 18.984375 -25.335938 16.882812 -25.9375 14.125 -25.9375 C 11.394531 -25.9375 9.3125 -25.335938 7.875 -24.140625 C 6.4375 -22.953125 5.71875 -21.148438 5.71875 -18.734375 C 5.71875 -16.347656 6.4375 -14.550781 7.875 -13.34375 C 9.3125 -12.144531 11.394531 -11.546875 14.125 -11.546875 Z M 9.4375 -14.3125 L 9.4375 -23.125 L 16.421875 -23.125 C 17.421875 -23.125 18.226562 -22.820312 18.84375 -22.21875 C 19.457031 -21.625 19.765625 -20.820312 19.765625 -19.8125 C 19.765625 -18.40625 19.203125 -17.429688 18.078125 -16.890625 L 19.65625 -14.3125 L 16.265625 -14.3125 L 14.984375 -16.484375 L 12.359375 -16.484375 L 12.359375 -14.3125 Z M 12.359375 -18.96875 L 15.796875 -18.96875 C 16.015625 -18.96875 16.25 -19.003906 16.5 -19.078125 C 16.757812 -19.148438 16.890625 -19.394531 16.890625 -19.8125 C 16.890625 -20.25 16.757812 -20.503906 16.5 -20.578125 C 16.25 -20.660156 16.015625 -20.703125 15.796875 -20.703125 L 12.359375 -20.703125 Z M 12.359375 -18.96875 "/></g></g></g><g fill="#ffffff" fill-opacity="1"><g transform="translate(7.481644, 205.916344)"><g><path d="M 19.25 0 L 1.25 -51.453125 L 19.765625 -51.453125 L 31.90625 -13.96875 L 44.609375 -51.453125 L 65.34375 -51.453125 L 78.125 -13.96875 L 90.1875 -51.453125 L 108.703125 -51.453125 L 90.765625 0 L 65.5625 0 L 54.984375 -32.046875 L 44.390625 0 Z M 19.25 0 "/></g></g></g><g fill="#ffffff" fill-opacity="1"><g transform="translate(106.667123, 205.916344)"><g><path d="M 1.25 0 L 24.25 -51.453125 L 49.3125 -51.453125 L 72.25 0 L 53.28125 0 L 49.09375 -9.78125 L 24.46875 -9.78125 L 20.21875 0 Z M 29.328125 -21.96875 L 44.171875 -21.96875 L 36.75 -39.171875 Z M 29.328125 -21.96875 "/></g></g></g><g fill="#ffffff" fill-opacity="1"><g transform="translate(169.24465, 205.916344)"><g><path d="M 24.25 0 L 1.25 -51.453125 L 20.359375 -51.453125 L 36.75 -12.28125 L 53.21875 -51.453125 L 72.25 -51.453125 L 49.3125 0 Z M 24.25 0 "/></g></g></g><g fill="#ffffff" fill-opacity="1"><g transform="translate(246.093683, 205.916344)"><g><path d="M 1.984375 0 L 1.984375 -51.453125 L 19.25 -51.453125 L 19.25 0 Z M 1.984375 0 "/></g></g></g><g fill="#ffffff" fill-opacity="1"><g transform="translate(271.38674, 205.916344)"><g><path d="M 33.59375 0.734375 C 22.269531 0.734375 14.046875 -1.476562 8.921875 -5.90625 C 3.804688 -10.34375 1.25 -16.972656 1.25 -25.796875 C 1.25 -34.566406 3.804688 -41.15625 8.921875 -45.5625 C 14.046875 -49.976562 22.269531 -52.1875 33.59375 -52.1875 C 43.882812 -52.1875 51.6875 -50.296875 57 -46.515625 C 62.3125 -42.742188 65.210938 -36.914062 65.703125 -29.03125 L 48.140625 -29.03125 C 47.703125 -31.96875 46.289062 -34.132812 43.90625 -35.53125 C 41.53125 -36.925781 38.09375 -37.625 33.59375 -37.625 C 29.625 -37.625 26.546875 -37.132812 24.359375 -36.15625 C 22.179688 -35.175781 20.660156 -33.789062 19.796875 -32 C 18.941406 -30.21875 18.515625 -28.148438 18.515625 -25.796875 C 18.515625 -23.441406 18.941406 -21.359375 19.796875 -19.546875 C 20.660156 -17.734375 22.179688 -16.320312 24.359375 -15.3125 C 26.546875 -14.3125 29.625 -13.8125 33.59375 -13.8125 C 38.09375 -13.8125 41.53125 -14.519531 43.90625 -15.9375 C 46.289062 -17.363281 47.703125 -19.570312 48.140625 -22.5625 L 65.703125 -22.5625 C 65.210938 -14.675781 62.320312 -8.820312 57.03125 -5 C 51.738281 -1.175781 43.925781 0.734375 33.59375 0.734375 Z M 33.59375 0.734375 "/></g></g></g></svg>